<svg width="24" height="23" viewBox="0 0 24 23" fill="none" xmlns="http://www.w3.org/2000/svg">
<g clip-path="url(#clip0_17_1315)">
<path d="M1.83008 1.51257V20.8554H22.3303" stroke="#030723" stroke-width="1.11043" stroke-miterlimit="10" stroke-linecap="round" stroke-linejoin="round"/>
<path d="M14.4133 13.2724L18.9405 8.74959V8.74532" stroke="#030723" stroke-width="1.11043" stroke-miterlimit="10" stroke-linecap="round" stroke-linejoin="round"/>
<path d="M19.8458 9.1237C20.5535 9.1237 21.1271 8.55006 21.1271 7.84244C21.1271 7.13481 20.5535 6.56117 19.8458 6.56117C19.1382 6.56117 18.5646 7.13481 18.5646 7.84244C18.5646 8.55006 19.1382 9.1237 19.8458 9.1237Z" stroke="#030723" stroke-width="1.11043" stroke-miterlimit="10" stroke-linecap="round" stroke-linejoin="round"/>
<path d="M6.52292 11.3719L1.82922 16.0656M12.4082 13.5031L8.52169 11.1327M8.71131 10.4665C8.71131 10.8167 8.56611 11.1413 8.33548 11.3719C8.21672 11.4911 8.07561 11.5856 7.92024 11.6501C7.76487 11.7146 7.59829 11.7479 7.43005 11.7479C7.26182 11.7479 7.09524 11.7146 6.93986 11.6501C6.78449 11.5856 6.64338 11.4911 6.52463 11.3719C6.40504 11.2535 6.31023 11.1124 6.2457 10.957C6.18118 10.8015 6.14823 10.6348 6.14879 10.4665C6.14879 9.75751 6.72109 9.18521 7.43005 9.18521C8.13475 9.18521 8.71131 9.75751 8.71131 10.4665ZM14.7807 14.1693C14.7807 14.8783 14.2041 15.4506 13.4994 15.4506C13.2473 15.4512 13.0007 15.3773 12.7904 15.2383C12.5801 15.0992 12.4156 14.9011 12.3176 14.6689C12.2195 14.4367 12.1922 14.1807 12.2391 13.933C12.286 13.6853 12.405 13.457 12.5812 13.2767C12.7 13.154 12.8422 13.0563 12.9993 12.9895C13.1565 12.9226 13.3255 12.888 13.4964 12.8876C13.6672 12.8872 13.8363 12.921 13.9938 12.9872C14.1513 13.0533 14.294 13.1503 14.4134 13.2724C14.6397 13.5031 14.7807 13.8191 14.7807 14.1693Z" stroke="#030723" stroke-width="1.11043" stroke-miterlimit="10" stroke-linecap="round" stroke-linejoin="round"/>
</g>
<defs>
<clipPath id="clip0_17_1315">
<rect width="22.2086" height="22.2086" fill="white" transform="translate(0.975464 0.0796814)"/>
</clipPath>
</defs>
</svg>
