<svg width="30" height="30" viewBox="0 0 30 30" fill="none" xmlns="http://www.w3.org/2000/svg">
<path d="M12.2681 3.43906C11.508 3.43906 10.779 3.74101 10.2415 4.27848C9.70405 4.81595 9.4021 5.54492 9.4021 6.30502V20.6349C9.4021 21.395 9.70405 22.1239 10.2415 22.6614C10.779 23.1989 11.508 23.5008 12.2681 23.5008H20.866C21.6261 23.5008 22.355 23.1989 22.8925 22.6614C23.43 22.1239 23.7319 21.395 23.7319 20.6349V6.30502C23.7319 5.54492 23.43 4.81595 22.8925 4.27848C22.355 3.74101 21.6261 3.43906 20.866 3.43906H12.2681ZM10.8351 6.30502C10.8351 5.92497 10.9861 5.56049 11.2548 5.29175C11.5235 5.02301 11.888 4.87204 12.2681 4.87204H20.866C21.246 4.87204 21.6105 5.02301 21.8792 5.29175C22.148 5.56049 22.299 5.92497 22.299 6.30502V20.6349C22.299 21.0149 22.148 21.3794 21.8792 21.6481C21.6105 21.9169 21.246 22.0678 20.866 22.0678H12.2681C11.888 22.0678 11.5235 21.9169 11.2548 21.6481C10.9861 21.3794 10.8351 21.0149 10.8351 20.6349V6.30502ZM6.53613 9.17099C6.53615 8.66792 6.66858 8.17372 6.92012 7.73805C7.17166 7.30238 7.53344 6.9406 7.96912 6.68906V21.3513C7.96912 22.3015 8.34655 23.2127 9.01839 23.8845C9.69024 24.5564 10.6014 24.9338 11.5516 24.9338H20.4819C20.2304 25.3695 19.8686 25.7313 19.4329 25.9828C18.9973 26.2343 18.5031 26.3668 18 26.3668H11.5516C10.2214 26.3668 8.9457 25.8384 8.00512 24.8978C7.06454 23.9572 6.53613 22.6815 6.53613 21.3513V9.17099Z" fill="white"/>
</svg>
