<svg width="23" height="23" viewBox="0 0 23 23" fill="none" xmlns="http://www.w3.org/2000/svg">
<path fill-rule="evenodd" clip-rule="evenodd" d="M11.4294 7.81676C10.4477 7.81676 9.50626 8.20673 8.81211 8.90088C8.11795 9.59504 7.72798 10.5365 7.72798 11.5182C7.72798 12.4999 8.11795 13.4413 8.81211 14.1355C9.50626 14.8296 10.4477 15.2196 11.4294 15.2196C12.4111 15.2196 13.3526 14.8296 14.0467 14.1355C14.7409 13.4413 15.1308 12.4999 15.1308 11.5182C15.1308 10.5365 14.7409 9.59504 14.0467 8.90088C13.3526 8.20673 12.4111 7.81676 11.4294 7.81676ZM10.1208 10.2095C10.4678 9.86246 10.9386 9.66747 11.4294 9.66747C11.9203 9.66747 12.391 9.86246 12.7381 10.2095C13.0851 10.5566 13.2801 11.0273 13.2801 11.5182C13.2801 12.009 13.0851 12.4798 12.7381 12.8268C12.391 13.1739 11.9203 13.3689 11.4294 13.3689C10.9386 13.3689 10.4678 13.1739 10.1208 12.8268C9.77368 12.4798 9.5787 12.009 9.5787 11.5182C9.5787 11.0273 9.77368 10.5566 10.1208 10.2095Z" fill="#030723"/>
<path fill-rule="evenodd" clip-rule="evenodd" d="M10.4865 1.33926C10.0661 1.33926 9.6986 1.62257 9.5916 2.02907L9.12267 3.81056L7.63281 4.43862L6.49235 3.42398C6.12618 3.09821 5.56951 3.11445 5.22295 3.46101L3.37223 5.31172C3.03697 5.64698 3.00935 6.1814 3.30827 6.54943L4.30777 7.78007L3.69485 9.28796L1.96547 9.6917C1.54671 9.78947 1.25049 10.1628 1.25049 10.5928V12.4435C1.25049 12.8608 1.52975 13.2265 1.9323 13.3363L3.7198 13.8239L4.34955 15.3178L3.33593 16.4544C3.00945 16.8205 3.02538 17.3778 3.37223 17.7247L5.22295 19.5754C5.55866 19.9111 6.09397 19.9383 6.46195 19.6383L7.69216 18.6354L9.16298 19.2405L9.60686 20.9983C9.71062 21.4092 10.0803 21.6971 10.5041 21.6971H12.3548C12.7784 21.6971 13.1479 21.4094 13.2519 20.9987L13.6968 19.2401L15.2169 18.6106C15.3699 18.7388 15.5453 18.8895 15.7199 19.0415C15.8934 19.1925 16.0546 19.3349 16.1726 19.4396C16.2315 19.4919 16.2795 19.5346 16.3126 19.5642L16.3629 19.6092C16.7288 19.9375 17.2883 19.923 17.6359 19.5754L19.4866 17.7247C19.8272 17.3841 19.8495 16.8392 19.538 16.4718L18.53 15.2832L19.1538 13.7766L20.9157 13.3188C21.3236 13.2128 21.6083 12.8446 21.6083 12.4232V10.5928C21.6083 10.1696 21.3213 9.80038 20.9111 9.69604L19.1601 9.25055L18.538 7.74767L19.539 6.56341C19.8495 6.196 19.8268 5.6519 19.4866 5.31172L17.6359 3.46101C17.2943 3.11945 16.7475 3.09807 16.3803 3.41192L15.2048 4.4167L13.649 3.77702L13.1896 2.02937C13.0827 1.62273 12.7151 1.33926 12.2946 1.33926H10.4865ZM17.5752 17.0187L16.9422 17.6518L16.9352 17.6457C16.5935 17.3482 16.1532 16.9716 15.905 16.7941C15.6451 16.6083 15.3078 16.5697 15.0127 16.692L12.5596 17.708C12.2896 17.8198 12.0883 18.0526 12.0166 18.3359L11.6344 19.8464H11.2248L10.8433 18.3354C10.7715 18.0512 10.5692 17.8178 10.2981 17.7062L7.88662 16.7142C7.57261 16.5851 7.21308 16.6382 6.9499 16.8528L5.94051 17.6756L5.29884 17.034L6.12003 16.1131C6.35776 15.8465 6.42084 15.4669 6.28209 15.1378L5.25032 12.6902C5.13993 12.4283 4.91533 12.2317 4.64117 12.1569L3.1012 11.7368V11.327L4.58209 10.9813C4.87465 10.913 5.11584 10.7069 5.22896 10.4286L6.22835 7.96996C6.35545 7.65725 6.3022 7.30014 6.08939 7.03812L5.2709 6.03036L5.91436 5.3869L6.839 6.20953C7.10558 6.44669 7.48475 6.50946 7.81353 6.37086L10.2611 5.33909C10.5256 5.22757 10.7234 4.99959 10.7965 4.72195L11.1998 3.18998H11.5811L11.9762 4.69297C12.0499 4.97352 12.2509 5.20325 12.5192 5.31356L15.0242 6.34348C15.3453 6.47552 15.7134 6.41666 15.9773 6.19105L16.9323 5.37475L17.5762 6.01862L16.7607 6.98343C16.5372 7.24783 16.48 7.61486 16.6124 7.93473L17.6275 10.3869C17.7391 10.6566 17.9715 10.8578 18.2543 10.9298L19.7576 11.3122V11.7076L18.2424 12.1013C17.9615 12.1743 17.7311 12.3748 17.6201 12.6429L16.6041 15.097C16.4714 15.4173 16.529 15.785 16.7533 16.0494L17.5752 17.0187Z" fill="#030723"/>
</svg>
