<svg width="23" height="23" viewBox="0 0 23 23" fill="none" xmlns="http://www.w3.org/2000/svg">
<path fill-rule="evenodd" clip-rule="evenodd" d="M7.72804 2.34751C7.72804 1.83645 7.31375 1.42215 6.80269 1.42215C6.29163 1.42215 5.87733 1.83645 5.87733 2.34751V3.27287H4.95197C4.21571 3.27287 3.50961 3.56534 2.989 4.08596C2.46838 4.60657 2.1759 5.31268 2.1759 6.04894V18.0786C2.1759 18.8148 2.46838 19.5209 2.989 20.0416C3.50961 20.5622 4.21571 20.8546 4.95197 20.8546H17.907C18.6432 20.8546 19.3493 20.5622 19.8699 20.0416C20.3906 19.5209 20.683 18.8148 20.683 18.0786V6.04894C20.683 5.31268 20.3906 4.60657 19.8699 4.08596C19.3493 3.56534 18.6432 3.27287 17.907 3.27287H17.4443C16.9332 3.27287 16.5189 3.68716 16.5189 4.19822C16.5189 4.70928 16.9332 5.12358 17.4443 5.12358H17.907C18.1524 5.12358 18.3878 5.22107 18.5613 5.39461C18.7348 5.56815 18.8323 5.80352 18.8323 6.04894V8.82501H4.02662V6.04894C4.02662 5.80352 4.12411 5.56815 4.29765 5.39461C4.47118 5.22107 4.70655 5.12358 4.95197 5.12358H5.87733V6.04894C5.87733 6.56 6.29163 6.97429 6.80269 6.97429C7.31375 6.97429 7.72804 6.56 7.72804 6.04894V2.34751ZM4.29765 18.7329C4.12411 18.5594 4.02662 18.324 4.02662 18.0786V10.6757H18.8323V18.0786C18.8323 18.324 18.7348 18.5594 18.5613 18.7329C18.3878 18.9064 18.1524 19.0039 17.907 19.0039H4.95197C4.70655 19.0039 4.47119 18.9064 4.29765 18.7329Z" fill="#030723"/>
<path d="M15.1309 2.34751C15.1309 1.83645 14.7166 1.42215 14.2055 1.42215C13.6945 1.42215 13.2802 1.83645 13.2802 2.34751V3.27287H10.0414C9.53037 3.27287 9.11608 3.68716 9.11608 4.19822C9.11608 4.70928 9.53037 5.12358 10.0414 5.12358H13.2802V6.04894C13.2802 6.56 13.6945 6.97429 14.2055 6.97429C14.7166 6.97429 15.1309 6.56 15.1309 6.04894V2.34751Z" fill="#030723"/>
</svg>
