<svg width="23" height="23" viewBox="0 0 23 23" fill="none" xmlns="http://www.w3.org/2000/svg">
<path d="M19.524 9.96833L19.5196 9.95098L17.0862 3.76772C16.9778 3.41854 16.6546 3.1778 16.2881 3.1778H6.42437C6.05568 3.1778 5.72818 3.42288 5.62408 3.77639L3.34901 9.89676L3.3425 9.91194L3.33816 9.92929C3.30997 10.0356 3.30129 10.144 3.31647 10.2503C3.31431 10.285 3.31214 10.3197 3.31214 10.3544V18.29C3.31271 18.6396 3.45182 18.9746 3.69899 19.2218C3.94616 19.469 4.28122 19.6081 4.63077 19.6087H18.2335C18.9601 19.6087 19.5521 19.0166 19.5543 18.29V10.3544C19.5543 10.3262 19.5543 10.298 19.5521 10.2741C19.5608 10.1679 19.5521 10.0659 19.524 9.96833ZM13.1086 9.03574L13.1021 9.37625C13.0848 10.35 12.4124 11.005 11.43 11.005C10.9507 11.005 10.5386 10.851 10.2415 10.5582C9.94434 10.2655 9.78168 9.85772 9.77301 9.37625L9.7665 9.03574H5.3031L7.0273 4.84345H15.6852L17.4571 9.03574H13.1086ZM4.97561 10.7014H8.38714C8.91416 11.9398 10.0354 12.6707 11.4321 12.6707C12.163 12.6707 12.8419 12.4668 13.3906 12.0807C13.872 11.7424 14.2473 11.2696 14.4902 10.7014H17.8843V17.943H4.97561V10.7014Z" fill="#030723"/>
</svg>
