<svg width="23" height="23" viewBox="0 0 23 23" fill="none" xmlns="http://www.w3.org/2000/svg">
<path fill-rule="evenodd" clip-rule="evenodd" d="M14.7608 2.55606C14.3681 2.55606 13.9915 2.71205 13.7138 2.98971C13.4362 3.26738 13.2802 3.64396 13.2802 4.03663V8.1082H9.20861C8.81594 8.1082 8.43935 8.26419 8.16169 8.54185C7.88403 8.81952 7.72804 9.19611 7.72804 9.58877V14.5857H3.65647C3.2638 14.5857 2.88721 14.7417 2.60955 15.0193C2.33189 15.297 2.1759 15.6736 2.1759 16.0663V19.5826C2.1759 19.9753 2.33189 20.3519 2.60955 20.6295C2.88721 20.9072 3.2638 21.0632 3.65647 21.0632H19.2025C19.5951 21.0632 19.9717 20.9072 20.2494 20.6295C20.527 20.3519 20.683 19.9753 20.683 19.5826V4.03663C20.683 3.64396 20.527 3.26738 20.2494 2.98971C19.9717 2.71205 19.5951 2.55606 19.2025 2.55606H14.7608ZM9.57876 9.95892H13.2802V19.2125H9.57876V9.95892ZM18.8323 19.2125H15.1309V4.40678H18.8323V19.2125ZM7.72804 16.4364V19.2125H4.02662V16.4364H7.72804Z" fill="#030723"/>
</svg>
