<svg width="24" height="23" viewBox="0 0 24 23" fill="none" xmlns="http://www.w3.org/2000/svg">
<path d="M7.45295 2.49182C6.71669 2.49182 6.01059 2.7843 5.48997 3.30491C4.96936 3.82553 4.67688 4.53163 4.67688 5.26789V18.2229C4.67688 18.9591 4.96936 19.6652 5.48997 20.1859C6.01059 20.7065 6.71669 20.999 7.45295 20.999H16.7065C17.4428 20.999 18.1489 20.7065 18.6695 20.1859C19.1901 19.6652 19.4826 18.9591 19.4826 18.2229V17.2975C19.4826 16.7865 19.0683 16.3722 18.5572 16.3722C18.0462 16.3722 17.6319 16.7865 17.6319 17.2975V18.2229C17.6319 18.4683 17.5344 18.7037 17.3608 18.8772C17.1873 19.0507 16.9519 19.1482 16.7065 19.1482H7.45295C7.20753 19.1482 6.97216 19.0507 6.79862 18.8772C6.62509 18.7037 6.52759 18.4683 6.52759 18.2229V5.26789C6.52759 5.02247 6.62509 4.7871 6.79862 4.61357C6.97216 4.44003 7.20753 4.34253 7.45295 4.34253H16.7065C16.9519 4.34253 17.1873 4.44003 17.3608 4.61357C17.5344 4.7871 17.6319 5.02247 17.6319 5.26789V6.19325C17.6319 6.70431 18.0462 7.1186 18.5572 7.1186C19.0683 7.1186 19.4826 6.70431 19.4826 6.19325V5.26789C19.4826 4.53163 19.1901 3.82553 18.6695 3.30491C18.1489 2.7843 17.4428 2.49182 16.7065 2.49182H7.45295Z" fill="#FF0A00"/>
<path d="M16.4355 8.31499C16.0741 7.95362 15.4882 7.95362 15.1268 8.31499C14.7655 8.67637 14.7655 9.26227 15.1268 9.62364L16.3232 10.82H12.0797C11.5687 10.82 11.1544 11.2343 11.1544 11.7454C11.1544 12.2564 11.5687 12.6707 12.0797 12.6707H16.3232L15.1268 13.8671C14.7655 14.2285 14.7655 14.8144 15.1268 15.1758C15.4882 15.5372 16.0741 15.5372 16.4355 15.1758L19.2116 12.3997C19.5729 12.0383 19.5729 11.4524 19.2116 11.0911L16.4355 8.31499Z" fill="#FF0A00"/>
</svg>
